<svg width="17" height="16" viewBox="0 0 17 16" fill="none" xmlns="http://www.w3.org/2000/svg">
<path d="M9.79688 3.62016V4.5135C8.05022 4.6535 7.05688 5.7735 7.05688 7.62016V10.6668H4.46355C2.93688 10.6668 2.17688 9.90683 2.17688 8.38016V3.62016C2.17688 2.0935 2.93688 1.3335 4.46355 1.3335H7.51021C9.03688 1.3335 9.79688 2.0935 9.79688 3.62016Z" fill="#0072BC"/>
<path d="M13.2235 5.3335H10.1768C8.65014 5.3335 7.89014 6.0935 7.89014 7.62016V12.3802C7.89014 13.9068 8.65014 14.6668 10.1768 14.6668H13.2235C14.7501 14.6668 15.5101 13.9068 15.5101 12.3802V7.62016C15.5101 6.0935 14.7501 5.3335 13.2235 5.3335ZM12.9301 10.5002H12.3435V11.0868C12.3435 11.3602 12.1168 11.5868 11.8435 11.5868C11.5701 11.5868 11.3435 11.3602 11.3435 11.0868V10.5002H10.7568C10.4835 10.5002 10.2568 10.2735 10.2568 10.0002C10.2568 9.72683 10.4835 9.50016 10.7568 9.50016H11.3435V8.9135C11.3435 8.64016 11.5701 8.4135 11.8435 8.4135C12.1168 8.4135 12.3435 8.64016 12.3435 8.9135V9.50016H12.9301C13.2035 9.50016 13.4301 9.72683 13.4301 10.0002C13.4301 10.2735 13.2035 10.5002 12.9301 10.5002Z" fill="#0072BC"/>
</svg>
