<svg width="14" height="14" viewBox="0 0 14 14" fill="none" xmlns="http://www.w3.org/2000/svg">
<path d="M6.44585 8.72091L5.36669 9.80008C5.13919 10.0276 4.77752 10.0276 4.54419 9.80591C4.48002 9.74175 4.41585 9.68341 4.35169 9.61925C3.75085 9.01258 3.20835 8.37675 2.72419 7.71175C2.24585 7.04675 1.86085 6.38175 1.58085 5.72258C1.30669 5.05758 1.16669 4.42175 1.16669 3.81508C1.16669 3.41841 1.23669 3.03925 1.37669 2.68925C1.51669 2.33341 1.73835 2.00675 2.04752 1.71508C2.42085 1.34758 2.82919 1.16675 3.26085 1.16675C3.42419 1.16675 3.58752 1.20175 3.73335 1.27175C3.88502 1.34175 4.01919 1.44675 4.12419 1.59841L5.47752 3.50591C5.58252 3.65175 5.65835 3.78591 5.71085 3.91425C5.76335 4.03675 5.79252 4.15925 5.79252 4.27008C5.79252 4.41008 5.75169 4.55008 5.67002 4.68425C5.59419 4.81841 5.48335 4.95841 5.34335 5.09841L4.90002 5.55925C4.83585 5.62341 4.80669 5.69925 4.80669 5.79258C4.80669 5.83925 4.81252 5.88008 4.82419 5.92675C4.84169 5.97341 4.85919 6.00841 4.87085 6.04341C4.97585 6.23591 5.15669 6.48675 5.41335 6.79008C5.67585 7.09341 5.95585 7.40258 6.25919 7.71175C6.31752 7.77008 6.38169 7.82841 6.44002 7.88675C6.67335 8.11425 6.67919 8.48758 6.44585 8.72091Z" fill="#0172BC"/>
<path d="M12.8158 10.6924C12.8158 10.8558 12.7866 11.0249 12.7283 11.1883C12.7108 11.2349 12.6933 11.2816 12.67 11.3283C12.5708 11.5383 12.4425 11.7366 12.2733 11.9233C11.9875 12.2383 11.6725 12.4658 11.3166 12.6116C11.3108 12.6116 11.305 12.6174 11.2991 12.6174C10.955 12.7574 10.5816 12.8333 10.1791 12.8333C9.58414 12.8333 8.94831 12.6933 8.27748 12.4074C7.60664 12.1216 6.93581 11.7366 6.27081 11.2524C6.04331 11.0833 5.81581 10.9141 5.59998 10.7333L7.50748 8.82577C7.67081 8.94827 7.81664 9.04161 7.93914 9.10577C7.96831 9.11744 8.00331 9.13494 8.04414 9.15244C8.09081 9.16994 8.13748 9.17577 8.18998 9.17577C8.28914 9.17577 8.36498 9.14078 8.42914 9.07661L8.87248 8.63911C9.01831 8.49328 9.15831 8.38244 9.29248 8.31244C9.42664 8.23077 9.56081 8.18994 9.70664 8.18994C9.81747 8.18994 9.93414 8.21327 10.0625 8.26577C10.1908 8.31827 10.325 8.39411 10.4708 8.49328L12.4016 9.86411C12.5533 9.96911 12.6583 10.0916 12.7225 10.2374C12.7808 10.3833 12.8158 10.5291 12.8158 10.6924Z" fill="#0172BC"/>
</svg>
