<svg width="24" height="24" viewBox="0 0 24 24" fill="none" xmlns="http://www.w3.org/2000/svg">
<path d="M8.49994 16.2499C8.30994 16.2499 8.11994 16.1799 7.96994 16.0299C7.67994 15.7399 7.67994 15.2599 7.96994 14.9699L14.9699 7.96994C15.2599 7.67994 15.7399 7.67994 16.0299 7.96994C16.3199 8.25994 16.3199 8.73994 16.0299 9.02994L9.02994 16.0299C8.87994 16.1799 8.68994 16.2499 8.49994 16.2499Z" fill="#474747"/>
<path d="M15.4999 16.2499C15.3099 16.2499 15.1199 16.1799 14.9699 16.0299L7.96994 9.02994C7.67994 8.73994 7.67994 8.25994 7.96994 7.96994C8.25994 7.67994 8.73994 7.67994 9.02994 7.96994L16.0299 14.9699C16.3199 15.2599 16.3199 15.7399 16.0299 16.0299C15.8799 16.1799 15.6899 16.2499 15.4999 16.2499Z" fill="#474747"/>
</svg>
