<svg width="12" height="12" viewBox="0 0 12 12" fill="none" xmlns="http://www.w3.org/2000/svg">
<path d="M10.5 12H1.5C1.295 12 1.125 11.83 1.125 11.625C1.125 11.42 1.295 11.25 1.5 11.25H10.5C10.705 11.25 10.875 11.42 10.875 11.625C10.875 11.83 10.705 12 10.5 12Z" fill="#0072BC"/>
<path d="M9.51004 2.73983C8.54004 1.76983 7.59004 1.74483 6.59504 2.73983L5.99004 3.34483C5.94004 3.39483 5.92004 3.47483 5.94004 3.54483C6.32004 4.86983 7.38004 5.92983 8.70504 6.30983C8.72504 6.31483 8.74504 6.31983 8.76504 6.31983C8.82004 6.31983 8.87004 6.29983 8.91004 6.25983L9.51004 5.65483C10.005 5.16483 10.245 4.68983 10.245 4.20983C10.25 3.71483 10.01 3.23483 9.51004 2.73983Z" fill="#0072BC"/>
<path d="M7.80504 6.7649C7.66004 6.6949 7.52004 6.6249 7.38504 6.5449C7.27504 6.4799 7.17004 6.4099 7.06504 6.3349C6.98004 6.2799 6.88004 6.1999 6.78504 6.1199C6.77504 6.1149 6.74004 6.0849 6.70004 6.0449C6.53504 5.9049 6.35004 5.7249 6.18504 5.5249C6.17004 5.5149 6.14504 5.4799 6.11004 5.4349C6.06004 5.3749 5.97504 5.2749 5.90004 5.1599C5.84004 5.0849 5.77004 4.9749 5.70504 4.8649C5.62504 4.7299 5.55504 4.5949 5.48504 4.4549C5.39326 4.25823 5.13513 4.19981 4.98167 4.35327L2.17004 7.1649C2.10504 7.2299 2.04504 7.3549 2.03004 7.4399L1.76004 9.3549C1.71004 9.6949 1.80504 10.0149 2.01504 10.2299C2.19504 10.4049 2.44504 10.4999 2.71504 10.4999C2.77504 10.4999 2.83504 10.4949 2.89504 10.4849L4.81504 10.2149C4.90504 10.1999 5.03004 10.1399 5.09004 10.0749L7.90631 7.25863C8.0567 7.10824 8.00019 6.84947 7.80504 6.7649Z" fill="#0072BC"/>
</svg>
