<svg width="12" height="12" viewBox="0 0 12 12" fill="none" xmlns="http://www.w3.org/2000/svg">
<path d="M10.515 11H6.995C6.785 11 6.62 10.83 6.62 10.625C6.62 10.42 6.79 10.25 6.995 10.25H10.515C10.725 10.25 10.89 10.42 10.89 10.625C10.89 10.83 10.725 11 10.515 11Z" fill="#DB0C0C"/>
<path d="M6.82 8.34518C7.015 8.54018 7.015 8.85518 6.82 9.05518L5.33 10.5452C4.775 11.1002 3.885 11.1302 3.295 10.6352C3.26 10.6052 3.23 10.5752 3.2 10.5452L2.765 10.1102L1.87 9.21518L1.44 8.78518C1.405 8.75018 1.375 8.71518 1.345 8.68018C0.855 8.09018 0.89 7.21018 1.44 6.66018L2.93 5.17018C3.125 4.97518 3.44 4.97518 3.635 5.17018L6.82 8.34518Z" fill="#DB0C0C"/>
<path d="M10.5601 5.32021L8.06005 7.82021C7.86505 8.01521 7.55005 8.01521 7.35505 7.82021L4.17005 4.64521C3.97505 4.45021 3.97505 4.13521 4.17005 3.93521L6.67005 1.44021C7.25505 0.855215 8.21505 0.855215 8.80005 1.44021L10.5601 3.19521C11.1451 3.78021 11.1451 4.73521 10.5601 5.32021Z" fill="#DB0C0C"/>
</svg>
