<svg width="16" height="16" viewBox="0 0 16 16" fill="none" xmlns="http://www.w3.org/2000/svg">
<path d="M8 10C9.10457 10 10 9.10457 10 8C10 6.89543 9.10457 6 8 6C6.89543 6 6 6.89543 6 8C6 9.10457 6.89543 10 8 10Z" stroke="#5A6870" stroke-miterlimit="10" stroke-linecap="round" stroke-linejoin="round"/>
<path d="M1.33334 8.58666V7.41333C1.33334 6.72 1.9 6.14666 2.6 6.14666C3.80667 6.14666 4.3 5.29333 3.69334 4.24666C3.34667 3.64666 3.55334 2.86666 4.16 2.52L5.31334 1.86C5.84 1.54667 6.52 1.73333 6.83334 2.26L6.90667 2.38666C7.50667 3.43333 8.49334 3.43333 9.1 2.38666L9.17334 2.26C9.48667 1.73333 10.1667 1.54667 10.6933 1.86L11.8467 2.52C12.4533 2.86666 12.66 3.64666 12.3133 4.24666C11.7067 5.29333 12.2 6.14666 13.4067 6.14666C14.1 6.14666 14.6733 6.71333 14.6733 7.41333V8.58666C14.6733 9.28 14.1067 9.85333 13.4067 9.85333C12.2 9.85333 11.7067 10.7067 12.3133 11.7533C12.66 12.36 12.4533 13.1333 11.8467 13.48L10.6933 14.14C10.1667 14.4533 9.48667 14.2667 9.17334 13.74L9.1 13.6133C8.5 12.5667 7.51334 12.5667 6.90667 13.6133L6.83334 13.74C6.52 14.2667 5.84 14.4533 5.31334 14.14L4.16 13.48C3.55334 13.1333 3.34667 12.3533 3.69334 11.7533C4.3 10.7067 3.80667 9.85333 2.6 9.85333C1.9 9.85333 1.33334 9.28 1.33334 8.58666Z" stroke="#5A6870" stroke-miterlimit="10" stroke-linecap="round" stroke-linejoin="round"/>
</svg>
