<svg width="10" height="10" viewBox="0 0 10 10" fill="none" xmlns="http://www.w3.org/2000/svg">
<path d="M5.16682 3.59629H4.57482C3.84091 3.59629 3.53936 3.07524 3.90743 2.43889L4.20454 1.9267L4.50165 1.41452C4.86971 0.778168 5.47059 0.778168 5.83865 1.41452L6.13576 1.9267L6.43287 2.43889C6.80094 3.07524 6.49939 3.59629 5.76548 3.59629H5.16682Z" fill="#5A6870" stroke="#5A6870" stroke-width="0.332588" stroke-miterlimit="10" stroke-linecap="round" stroke-linejoin="round"/>
<path d="M5.16961 6.39819H5.76162C6.49553 6.39819 6.79708 6.91925 6.42901 7.5556L6.1319 8.06778L5.83479 8.57997C5.46672 9.21632 4.86585 9.21632 4.49779 8.57997L4.20067 8.06778L3.90356 7.5556C3.54215 6.91925 3.84148 6.39819 4.57761 6.39819H5.16961Z" fill="#5A6870" stroke="#5A6870" stroke-width="0.332588" stroke-miterlimit="10" stroke-linecap="round" stroke-linejoin="round"/>
</svg>
