<svg width="22" height="22" viewBox="0 0 22 22" fill="none" xmlns="http://www.w3.org/2000/svg">
<path opacity="0.4" d="M17.6458 6.79245V15.2074C17.6458 16.7841 17.0775 17.9666 16.06 18.5349C15.6475 18.7641 15.1892 18.8741 14.7125 18.8741C13.9792 18.8741 13.1908 18.6266 12.3842 18.1225L9.7075 16.445C9.52417 16.335 9.31333 16.2708 9.1025 16.2708H8.25V5.72912H9.1025C9.31333 5.72912 9.52417 5.66495 9.7075 5.55495L12.3842 3.87745C13.7225 3.04328 15.0333 2.89662 16.06 3.46495C17.0775 4.03328 17.6458 5.21578 17.6458 6.79245Z" fill="#0072BC"/>
<path d="M8.25008 5.72913V16.2708H7.79175C5.57341 16.2708 4.35425 15.0516 4.35425 12.8333V9.16663C4.35425 6.94829 5.57341 5.72913 7.79175 5.72913H8.25008Z" fill="#0072BC"/>
</svg>
