<svg width="22" height="22" viewBox="0 0 22 22" fill="none" xmlns="http://www.w3.org/2000/svg">
<path opacity="0.4" d="M14.8867 3.34583H7.11337C4.8492 3.34583 3.01587 5.18832 3.01587 7.44333V16.0692C3.01587 18.3242 4.85837 20.1667 7.11337 20.1667H14.8775C17.1417 20.1667 18.975 18.3242 18.975 16.0692V7.44333C18.9842 5.17916 17.1417 3.34583 14.8867 3.34583Z" fill="#0072BC"/>
<path d="M13.1541 1.83337H8.84578C7.89245 1.83337 7.11328 2.60337 7.11328 3.55671V4.41837C7.11328 5.37171 7.88328 6.14171 8.83661 6.14171H13.1541C14.1074 6.14171 14.8774 5.37171 14.8774 4.41837V3.55671C14.8866 2.60337 14.1074 1.83337 13.1541 1.83337Z" fill="#0072BC"/>
<path d="M13.75 11.8708H7.33337C6.95754 11.8708 6.64587 11.5592 6.64587 11.1833C6.64587 10.8075 6.95754 10.4958 7.33337 10.4958H13.75C14.1259 10.4958 14.4375 10.8075 14.4375 11.1833C14.4375 11.5592 14.1259 11.8708 13.75 11.8708Z" fill="#0072BC"/>
<path d="M11.3484 15.5375H7.33337C6.95754 15.5375 6.64587 15.2258 6.64587 14.85C6.64587 14.4741 6.95754 14.1625 7.33337 14.1625H11.3484C11.7242 14.1625 12.0359 14.4741 12.0359 14.85C12.0359 15.2258 11.7242 15.5375 11.3484 15.5375Z" fill="#0072BC"/>
</svg>
