<svg width="22" height="22" viewBox="0 0 22 22" fill="none" xmlns="http://www.w3.org/2000/svg">
<path opacity="0.4" d="M20.1666 7.1592V14.8409C20.1666 17.4167 18.9841 19.1858 16.9033 19.855C16.2983 20.0658 15.6016 20.1667 14.8408 20.1667H7.15908C6.39825 20.1667 5.70158 20.0658 5.09658 19.855C3.01575 19.1858 1.83325 17.4167 1.83325 14.8409V7.1592C1.83325 3.82254 3.82242 1.83337 7.15908 1.83337H14.8408C18.1774 1.83337 20.1666 3.82254 20.1666 7.1592Z" fill="#0072BC"/>
<path d="M16.9034 19.855C16.2984 20.0658 15.6017 20.1666 14.8409 20.1666H7.15918C6.39835 20.1666 5.70168 20.0658 5.09668 19.855C5.41751 17.435 7.94752 15.5558 11 15.5558C14.0525 15.5558 16.5825 17.435 16.9034 19.855Z" fill="#0072BC"/>
<path d="M14.2816 10.6151C14.2816 12.4301 12.8149 13.9059 10.9999 13.9059C9.18493 13.9059 7.71826 12.4301 7.71826 10.6151C7.71826 8.80006 9.18493 7.33337 10.9999 7.33337C12.8149 7.33337 14.2816 8.80006 14.2816 10.6151Z" fill="#0072BC"/>
</svg>
