<svg width="14" height="14" viewBox="0 0 14 14" fill="none" xmlns="http://www.w3.org/2000/svg">
<path d="M12.2499 7C12.2499 9.89952 9.8994 12.25 6.99988 12.25C4.10036 12.25 1.74984 9.89952 1.74984 7C1.74984 4.10049 4.10036 1.74996 6.99988 1.74996C9.8994 1.74996 12.2499 4.10049 12.2499 7Z" fill="#0072BC" stroke="#0072BC" stroke-width="1.16667" stroke-linecap="round" stroke-linejoin="round"/>
<path d="M5.95565 9.5967C5.79736 9.5967 5.63907 9.53838 5.5141 9.41341L4.26445 8.16376C4.02285 7.92216 4.02285 7.52228 4.26445 7.28068C4.50605 7.03908 4.90594 7.03908 5.14754 7.28068L5.95565 8.08878L8.84651 5.19792C9.08811 4.95632 9.488 4.95632 9.7296 5.19792C9.97119 5.43952 9.97119 5.83941 9.7296 6.08101L6.39719 9.41341C6.28056 9.53838 6.11394 9.5967 5.95565 9.5967Z" fill="white"/>
</svg>
