<svg width="12" height="12" viewBox="0 0 12 12" fill="none" xmlns="http://www.w3.org/2000/svg">
<path d="M6.945 1.43995L4.6 1.06995C2.645 0.764948 1.74 1.42495 1.43 3.37995L1.06 5.72495C0.859996 7.00495 1.07 7.83495 1.795 8.33995C2.175 8.60995 2.695 8.78995 3.37 8.89495L5.715 9.26495C7.67 9.56995 8.575 8.90995 8.885 6.95495L9.25 4.60995C9.31 4.22495 9.335 3.87995 9.315 3.57495C9.25 2.32495 8.515 1.68495 6.945 1.43995ZM4.12 4.67495C3.535 4.67495 3.06 4.19995 3.06 3.61995C3.06 3.03495 3.535 2.55995 4.12 2.55995C4.7 2.55995 5.175 3.03495 5.175 3.61995C5.175 4.19995 4.7 4.67495 4.12 4.67495Z" fill="#664199"/>
<path d="M10.2501 6.73503L9.50007 8.99003C8.87507 10.87 7.87507 11.37 5.99507 10.745L3.74007 9.99503C3.03507 9.76003 2.52507 9.47003 2.19507 9.10503C2.51007 9.23003 2.87507 9.32503 3.29007 9.39003L5.64007 9.76003C5.96007 9.81003 6.26007 9.83503 6.54007 9.83503C8.19007 9.83503 9.07507 8.94503 9.38007 7.03003L9.74507 4.68503C9.79507 4.39503 9.81507 4.14003 9.81507 3.90503C10.5751 4.53003 10.6851 5.42003 10.2501 6.73503Z" fill="#664199"/>
</svg>
