<svg width="14" height="14" viewBox="0 0 14 14" fill="none" xmlns="http://www.w3.org/2000/svg">
<path d="M12.0283 4.92909C11.4158 2.23409 9.065 1.02075 6.99999 1.02075C6.99999 1.02075 6.99999 1.02075 6.99416 1.02075C4.93499 1.02075 2.57833 2.22825 1.96583 4.92325C1.28333 7.93325 3.12666 10.4824 4.795 12.0866C5.41333 12.6816 6.20666 12.9791 6.99999 12.9791C7.79333 12.9791 8.58666 12.6816 9.19916 12.0866C10.8675 10.4824 12.7108 7.93909 12.0283 4.92909ZM6.99999 7.85159C5.98499 7.85159 5.1625 7.02909 5.1625 6.01409C5.1625 4.99909 5.98499 4.17659 6.99999 4.17659C8.015 4.17659 8.83749 4.99909 8.83749 6.01409C8.83749 7.02909 8.015 7.85159 6.99999 7.85159Z" fill="#0172BC"/>
</svg>
