<svg width="64" height="64" viewBox="0 0 64 64" fill="none" xmlns="http://www.w3.org/2000/svg">
<circle cx="32" cy="32" r="32" fill="#B6E1FD"/>
<path d="M12.0029 29.8438V33.8779C12.0029 34.7861 12.082 35.3721 12.2402 35.6357C12.4336 35.9463 12.8408 36.1016 13.4619 36.1016C14.1299 36.1016 14.6572 35.9551 15.0439 35.6621C15.4307 35.3691 15.7002 34.9121 15.8525 34.291C15.9404 33.9102 16.1396 33.7197 16.4502 33.7197C16.7607 33.7197 17.0127 33.8604 17.2061 34.1416C17.4053 34.417 17.5049 34.7773 17.5049 35.2227C17.5049 35.9492 17.2354 36.7256 16.6963 37.5518C16.5264 37.8154 16.377 37.9941 16.248 38.0879C16.1191 38.1875 15.9639 38.2373 15.7822 38.2373L13.8311 38H7.6875C7.2832 38 6.99902 37.9531 6.83496 37.8594C6.59473 37.7246 6.47461 37.5225 6.47461 37.2529C6.47461 37.0889 6.5127 36.9688 6.58887 36.8926C6.6709 36.8105 6.86426 36.6963 7.16895 36.5498C7.50293 36.3916 7.7168 36.1689 7.81055 35.8818C7.88672 35.6416 7.9248 34.9414 7.9248 33.7812C7.9248 33.2422 7.91016 32.4658 7.88086 31.4521C7.85156 30.4795 7.83398 29.7471 7.82812 29.2549C7.82812 28.7861 7.79004 28.4668 7.71387 28.2969C7.64355 28.1211 7.49121 27.9951 7.25684 27.9189C6.87012 27.7842 6.62402 27.6758 6.51855 27.5938C6.33105 27.4473 6.2373 27.2803 6.2373 27.0928C6.2373 26.665 6.5918 26.3398 7.30078 26.1172C7.9043 25.9238 8.71289 25.8271 9.72656 25.8271C10.8633 25.8271 11.7129 25.8857 12.2754 26.0029C13.002 26.1611 13.3652 26.4775 13.3652 26.9521C13.3652 27.1455 13.3154 27.2891 13.2158 27.3828C13.1221 27.4766 12.8877 27.6025 12.5127 27.7607C12.29 27.8604 12.1494 28.0303 12.0908 28.2705C12.0322 28.5107 12.0029 29.0352 12.0029 29.8438ZM24.457 25.7568C25.9629 25.7568 27.2783 26.1875 28.4033 27.0488C29.165 27.6406 29.7832 28.4082 30.2578 29.3516C30.7207 30.2891 30.9521 31.2266 30.9521 32.1641C30.9521 33.5469 30.4951 34.7832 29.5811 35.873C28.8076 36.7988 27.7969 37.4639 26.5488 37.8682C25.7812 38.1143 25.0107 38.2373 24.2373 38.2373C23.2236 38.2373 22.2539 38.0264 21.3281 37.6045C20.209 37.0947 19.333 36.3242 18.7002 35.293C18.085 34.2969 17.7773 33.1982 17.7773 31.9971C17.7773 30.6025 18.1729 29.3721 18.9639 28.3057C19.667 27.3564 20.6133 26.6592 21.8027 26.2139C22.5996 25.9092 23.4844 25.7568 24.457 25.7568ZM23.6221 28.2793C23.1299 28.2793 22.7402 28.499 22.4531 28.9385C22.2305 29.2666 22.1191 29.6562 22.1191 30.1074C22.1191 30.7695 22.2539 31.5371 22.5234 32.4102C22.793 33.2773 23.1328 34.0479 23.543 34.7217C23.7246 35.0088 23.9473 35.2373 24.2109 35.4072C24.4805 35.5771 24.7529 35.6621 25.0283 35.6621C25.4736 35.6621 25.8311 35.4951 26.1006 35.1611C26.376 34.8271 26.5137 34.3877 26.5137 33.8428C26.5137 33.1338 26.3994 32.3691 26.1709 31.5488C25.9424 30.7285 25.6465 30.0283 25.2832 29.4482C25.0605 29.0908 24.8027 28.8096 24.5098 28.6045C24.2168 28.3994 23.9209 28.291 23.6221 28.2793ZM38.4756 25.7568C39.2432 25.7568 39.9668 25.8652 40.6465 26.082C40.9512 26.1816 41.1592 26.2314 41.2705 26.2314C41.3877 26.2314 41.6338 26.1641 42.0088 26.0293C42.1318 25.9883 42.2578 25.9678 42.3867 25.9678C42.7148 25.9678 43.0283 26.1611 43.3271 26.5479C43.8076 27.1689 44.0479 27.8486 44.0479 28.5869C44.0479 29.0908 43.9189 29.498 43.6611 29.8086C43.4092 30.1191 43.0752 30.2744 42.6592 30.2744C42.3193 30.2744 41.9854 30.1514 41.6572 29.9053C41.5576 29.8291 41.3145 29.5537 40.9277 29.0791C40.2832 28.2881 39.542 27.8926 38.7041 27.8926C37.9424 27.8926 37.3359 28.1709 36.8848 28.7275C36.4395 29.2842 36.2168 30.0342 36.2168 30.9775C36.2168 32.3779 36.5742 33.5703 37.2891 34.5547C37.5586 34.9121 37.8809 35.1992 38.2559 35.416C38.6309 35.627 39.0029 35.7324 39.3721 35.7324C39.6768 35.7324 39.9258 35.6328 40.1191 35.4336C40.3184 35.2285 40.418 34.9678 40.418 34.6514C40.418 34.3701 40.3359 34.1709 40.1719 34.0537C40.1074 34.0068 40.0459 33.9805 39.9873 33.9746C39.9346 33.9629 39.7676 33.957 39.4863 33.957C39.2344 33.957 39.0234 33.8779 38.8535 33.7197C38.6895 33.5557 38.6074 33.3506 38.6074 33.1045C38.6074 32.6182 38.9297 32.2725 39.5742 32.0674C40.2832 31.8447 41.1006 31.7334 42.0264 31.7334C43.0166 31.7334 43.8486 31.8359 44.5225 32.041C45.1611 32.2402 45.4805 32.6006 45.4805 33.1221C45.4805 33.333 45.4072 33.5176 45.2607 33.6758C45.1143 33.8281 44.9238 33.9189 44.6895 33.9482C44.4844 33.9775 44.3496 34.0244 44.2852 34.0889C44.2266 34.1475 44.165 34.2969 44.1006 34.5371C43.8486 35.4688 43.3564 36.248 42.624 36.875C42.1201 37.3027 41.5107 37.6367 40.7959 37.877C40.0869 38.1172 39.3398 38.2373 38.5547 38.2373C37.2715 38.2373 36.0938 37.9414 35.0215 37.3496C33.9199 36.7461 33.082 35.9023 32.5078 34.8184C32.0273 33.916 31.7871 32.9404 31.7871 31.8916C31.7871 30.8311 32.0742 29.8232 32.6484 28.8682C33.2578 27.8428 34.1104 27.0518 35.2061 26.4951C36.1611 26.0029 37.251 25.7568 38.4756 25.7568ZM52.7578 25.7568C54.2637 25.7568 55.5791 26.1875 56.7041 27.0488C57.4658 27.6406 58.084 28.4082 58.5586 29.3516C59.0215 30.2891 59.2529 31.2266 59.2529 32.1641C59.2529 33.5469 58.7959 34.7832 57.8818 35.873C57.1084 36.7988 56.0977 37.4639 54.8496 37.8682C54.082 38.1143 53.3115 38.2373 52.5381 38.2373C51.5244 38.2373 50.5547 38.0264 49.6289 37.6045C48.5098 37.0947 47.6338 36.3242 47.001 35.293C46.3857 34.2969 46.0781 33.1982 46.0781 31.9971C46.0781 30.6025 46.4736 29.3721 47.2646 28.3057C47.9678 27.3564 48.9141 26.6592 50.1035 26.2139C50.9004 25.9092 51.7852 25.7568 52.7578 25.7568ZM51.9229 28.2793C51.4307 28.2793 51.041 28.499 50.7539 28.9385C50.5312 29.2666 50.4199 29.6562 50.4199 30.1074C50.4199 30.7695 50.5547 31.5371 50.8242 32.4102C51.0938 33.2773 51.4336 34.0479 51.8438 34.7217C52.0254 35.0088 52.248 35.2373 52.5117 35.4072C52.7812 35.5771 53.0537 35.6621 53.3291 35.6621C53.7744 35.6621 54.1318 35.4951 54.4014 35.1611C54.6768 34.8271 54.8145 34.3877 54.8145 33.8428C54.8145 33.1338 54.7002 32.3691 54.4717 31.5488C54.2432 30.7285 53.9473 30.0283 53.584 29.4482C53.3613 29.0908 53.1035 28.8096 52.8105 28.6045C52.5176 28.3994 52.2217 28.291 51.9229 28.2793Z" fill="#0072BC"/>
</svg>
