<svg width="14" height="14" viewBox="0 0 14 14" fill="none" xmlns="http://www.w3.org/2000/svg">
<path d="M9.91666 2.04175H4.08332C2.33332 2.04175 1.16666 2.91675 1.16666 4.95842V9.04175C1.16666 11.0834 2.33332 11.9584 4.08332 11.9584H9.91666C11.6667 11.9584 12.8333 11.0834 12.8333 9.04175V4.95842C12.8333 2.91675 11.6667 2.04175 9.91666 2.04175ZM10.1908 5.59425L8.36499 7.05258C7.97999 7.36175 7.48999 7.51342 6.99999 7.51342C6.50999 7.51342 6.01416 7.36175 5.63499 7.05258L3.80916 5.59425C3.62249 5.44258 3.59332 5.16258 3.73916 4.97591C3.89082 4.78925 4.16499 4.75425 4.35166 4.90591L6.17749 6.36425C6.62082 6.72008 7.37332 6.72008 7.81666 6.36425L9.64249 4.90591C9.82916 4.75425 10.1092 4.78341 10.255 4.97591C10.4067 5.16258 10.3775 5.44258 10.1908 5.59425Z" fill="#0172BC"/>
</svg>
