<svg width="22" height="22" viewBox="0 0 22 22" fill="none" xmlns="http://www.w3.org/2000/svg">
<path opacity="0.4" d="M19.8551 9.56997L18.9567 13.4016C18.1867 16.7108 16.6651 18.0491 13.8051 17.7741C13.3467 17.7375 12.8517 17.655 12.3201 17.5266L10.7801 17.16C6.95758 16.2525 5.77508 14.3641 6.67342 10.5325L7.57175 6.69163C7.75508 5.91247 7.97508 5.23413 8.25008 4.67497C9.32258 2.45663 11.1467 1.8608 14.2084 2.58497L15.7392 2.94247C19.5801 3.8408 20.7534 5.7383 19.8551 9.56997Z" fill="#0072BC"/>
<path d="M13.8051 17.7742C13.2367 18.1592 12.5217 18.48 11.6509 18.7642L10.2026 19.2409C6.5634 20.4142 4.64757 19.4334 3.46507 15.7942L2.29174 12.1734C1.1184 8.53422 2.09007 6.60922 5.72924 5.43588L7.17757 4.95922C7.5534 4.84005 7.9109 4.73922 8.25007 4.67505C7.97507 5.23422 7.75507 5.91255 7.57174 6.69172L6.6734 10.5325C5.77507 14.3642 6.95757 16.2525 10.7801 17.16L12.3201 17.5267C12.8517 17.655 13.3467 17.7375 13.8051 17.7742Z" fill="#0072BC"/>
<path d="M16.0325 9.63421C15.9775 9.63421 15.9225 9.62504 15.8583 9.61587L11.4125 8.48837C11.0458 8.39671 10.8258 8.02087 10.9175 7.65421C11.0092 7.28754 11.385 7.06754 11.7517 7.15921L16.1975 8.28671C16.5642 8.37837 16.7842 8.75421 16.6925 9.12087C16.6192 9.42337 16.335 9.63421 16.0325 9.63421Z" fill="#0072BC"/>
<path d="M13.3467 12.7325C13.2917 12.7325 13.2367 12.7234 13.1725 12.7142L10.505 12.0359C10.1384 11.9442 9.91837 11.5684 10.01 11.2017C10.1017 10.835 10.4775 10.615 10.8442 10.7067L13.5117 11.385C13.8784 11.4767 14.0984 11.8525 14.0067 12.2192C13.9334 12.5309 13.6584 12.7325 13.3467 12.7325Z" fill="#0072BC"/>
</svg>
