<svg width="22" height="22" viewBox="0 0 22 22" fill="none" xmlns="http://www.w3.org/2000/svg">
<path opacity="0.4" d="M18.7917 9.34087H16.1426C13.9701 9.34087 12.2009 7.57171 12.2009 5.39921V2.75004C12.2009 2.24587 11.7884 1.83337 11.2842 1.83337H7.39758C4.57425 1.83337 2.29175 3.66671 2.29175 6.93921V15.0609C2.29175 18.3334 4.57425 20.1667 7.39758 20.1667H14.6026C17.4259 20.1667 19.7084 18.3334 19.7084 15.0609V10.2575C19.7084 9.75337 19.2959 9.34087 18.7917 9.34087Z" fill="#0072BC"/>
<path d="M14.4835 2.02579C14.1076 1.64995 13.4568 1.90662 13.4568 2.42912V5.62829C13.4568 6.96662 14.5935 8.07579 15.9776 8.07579C16.8485 8.08495 18.0585 8.08495 19.0943 8.08495C19.6168 8.08495 19.8918 7.47079 19.5251 7.10412C18.2051 5.77495 15.8401 3.38245 14.4835 2.02579Z" fill="#0072BC"/>
<path d="M12.375 12.6041H6.875C6.49917 12.6041 6.1875 12.2925 6.1875 11.9166C6.1875 11.5408 6.49917 11.2291 6.875 11.2291H12.375C12.7508 11.2291 13.0625 11.5408 13.0625 11.9166C13.0625 12.2925 12.7508 12.6041 12.375 12.6041Z" fill="#0072BC"/>
<path d="M10.5417 16.2709H6.875C6.49917 16.2709 6.1875 15.9592 6.1875 15.5834C6.1875 15.2075 6.49917 14.8959 6.875 14.8959H10.5417C10.9175 14.8959 11.2292 15.2075 11.2292 15.5834C11.2292 15.9592 10.9175 16.2709 10.5417 16.2709Z" fill="#0072BC"/>
<path d="M20.6525 20.5976L19.9742 19.9193C20.3225 19.3876 20.5333 18.7459 20.5333 18.0584C20.5333 16.1884 19.0116 14.6667 17.1416 14.6667C15.2716 14.6667 13.75 16.1884 13.75 18.0584C13.75 19.9284 15.2716 21.4501 17.1416 21.4501C17.8291 21.4501 18.4708 21.2393 19.0025 20.8909L19.6808 21.5692C19.8183 21.7067 19.9925 21.7709 20.1667 21.7709C20.3408 21.7709 20.515 21.7067 20.6525 21.5692C20.9183 21.3034 20.9183 20.8634 20.6525 20.5976Z" fill="#0072BC"/>
</svg>
