<svg width="22" height="22" viewBox="0 0 22 22" fill="none" xmlns="http://www.w3.org/2000/svg">
<path opacity="0.4" d="M17.1142 1.83337H15.3726C13.3742 1.83337 12.3201 2.88754 12.3201 4.88587V6.62754C12.3201 8.62587 13.3742 9.68004 15.3726 9.68004H17.1142C19.1126 9.68004 20.1667 8.62587 20.1667 6.62754V4.88587C20.1667 2.88754 19.1126 1.83337 17.1142 1.83337Z" fill="#0072BC"/>
<path opacity="0.4" d="M6.63659 12.3108H4.89492C2.88742 12.3108 1.83325 13.365 1.83325 15.3633V17.105C1.83325 19.1125 2.88742 20.1666 4.88575 20.1666H6.62742C8.62575 20.1666 9.67992 19.1125 9.67992 17.1141V15.3725C9.68909 13.365 8.63492 12.3108 6.63659 12.3108Z" fill="#0072BC"/>
<path d="M5.76575 9.69837C7.93761 9.69837 9.69825 7.93773 9.69825 5.76587C9.69825 3.59401 7.93761 1.83337 5.76575 1.83337C3.59389 1.83337 1.83325 3.59401 1.83325 5.76587C1.83325 7.93773 3.59389 9.69837 5.76575 9.69837Z" fill="#0072BC"/>
<path d="M16.2343 20.1666C18.4061 20.1666 20.1668 18.406 20.1668 16.2341C20.1668 14.0623 18.4061 12.3016 16.2343 12.3016C14.0624 12.3016 12.3018 14.0623 12.3018 16.2341C12.3018 18.406 14.0624 20.1666 16.2343 20.1666Z" fill="#0072BC"/>
</svg>
