<svg width="22" height="22" viewBox="0 0 22 22" fill="none" xmlns="http://www.w3.org/2000/svg">
<path d="M10.9999 1.83337C8.59825 1.83337 6.64575 3.78587 6.64575 6.18754C6.64575 8.54337 8.48825 10.45 10.8899 10.5325C10.9633 10.5234 11.0366 10.5234 11.0916 10.5325C11.1099 10.5325 11.1191 10.5325 11.1374 10.5325C11.1466 10.5325 11.1466 10.5325 11.1558 10.5325C13.5024 10.45 15.3449 8.54337 15.3541 6.18754C15.3541 3.78587 13.4016 1.83337 10.9999 1.83337Z" fill="#0072BC"/>
<path opacity="0.4" d="M15.6566 12.98C13.0991 11.275 8.9283 11.275 6.35246 12.98C5.1883 13.75 4.54663 14.8042 4.54663 15.9317C4.54663 17.0592 5.1883 18.1042 6.3433 18.8742C7.62663 19.7359 9.3133 20.1667 11 20.1667C12.6866 20.1667 14.3733 19.7359 15.6566 18.8742C16.8116 18.095 17.4533 17.05 17.4533 15.9134C17.4441 14.795 16.8116 13.7409 15.6566 12.98Z" fill="#0072BC"/>
<path d="M10.4226 17.655C10.2759 17.655 10.1292 17.5909 10.0192 17.49L8.86422 16.335C8.64422 16.115 8.64422 15.7484 8.86422 15.5284C9.08422 15.3084 9.45089 15.3084 9.67089 15.5284L10.4226 16.28L12.3292 14.3734C12.5492 14.1534 12.9159 14.1534 13.1359 14.3734C13.3559 14.5934 13.3559 14.96 13.1359 15.18L10.8259 17.49C10.7159 17.6 10.5692 17.655 10.4226 17.655Z" fill="#0072BC"/>
</svg>
