<svg width="22" height="22" viewBox="0 0 22 22" fill="none" xmlns="http://www.w3.org/2000/svg">
<path opacity="0.6" d="M9.26741 3.66663C9.19407 3.94163 9.16659 4.24413 9.16659 4.58329V7.33329H4.58325V5.49996C4.58325 4.49163 5.40825 3.66663 6.41659 3.66663H9.26741Z" fill="#0072BC"/>
<path d="M9.16659 17.4167V7.33337H4.58325C2.74992 7.33337 1.83325 8.25004 1.83325 10.0834V17.4167C1.83325 19.25 2.74992 20.1667 4.58325 20.1667H11.9166C10.0833 20.1667 9.16659 19.25 9.16659 17.4167ZM6.18742 15.5834C6.18742 15.9592 5.87575 16.2709 5.49992 16.2709C5.12409 16.2709 4.81242 15.9592 4.81242 15.5834V11.9167C4.81242 11.5409 5.12409 11.2292 5.49992 11.2292C5.87575 11.2292 6.18742 11.5409 6.18742 11.9167V15.5834Z" fill="#0072BC"/>
<path opacity="0.4" d="M12.8334 20.1667H11.9167C10.0834 20.1667 9.16675 19.25 9.16675 17.4167V4.58337C9.16675 2.75004 10.0834 1.83337 11.9167 1.83337H17.4167C19.2501 1.83337 20.1667 2.75004 20.1667 4.58337V17.4167C20.1667 19.25 19.2501 20.1667 17.4167 20.1667H16.5001" fill="#0072BC"/>
<path d="M16.4999 16.5V20.1667H12.8333V16.5C12.8333 15.9959 13.2458 15.5834 13.7499 15.5834H15.5833C16.0874 15.5834 16.4999 15.9959 16.4999 16.5Z" fill="#0072BC"/>
<path d="M12.8333 12.6042C12.4574 12.6042 12.1458 12.2925 12.1458 11.9167V7.33337C12.1458 6.95754 12.4574 6.64587 12.8333 6.64587C13.2091 6.64587 13.5208 6.95754 13.5208 7.33337V11.9167C13.5208 12.2925 13.2091 12.6042 12.8333 12.6042Z" fill="#0072BC"/>
<path d="M16.5 12.6042C16.1242 12.6042 15.8125 12.2925 15.8125 11.9167V7.33337C15.8125 6.95754 16.1242 6.64587 16.5 6.64587C16.8758 6.64587 17.1875 6.95754 17.1875 7.33337V11.9167C17.1875 12.2925 16.8758 12.6042 16.5 12.6042Z" fill="#0072BC"/>
</svg>
